<?xml version='1.0' encoding='ASCII' standalone='yes'?>
<svg xmlns="http://www.w3.org/2000/svg" xmlns:xlink="http://www.w3.org/1999/xlink" version="1.1" width="100" viewBox="0 0 100 50" height="50">
  <g>
    <g><path d="M17,5c0.83,0 1.5,-0.67 1.5,-1.5 0,-1 -1.5,-2.7 -1.5,-2.7s-1.5,1.7 -1.5,2.7c0,0.83 0.67,1.5 1.5,1.5zM12,5c0.83,0 1.5,-0.67 1.5,-1.5 0,-1 -1.5,-2.7 -1.5,-2.7s-1.5,1.7 -1.5,2.7c0,0.83 0.67,1.5 1.5,1.5zM7,5c0.83,0 1.5,-0.67 1.5,-1.5C8.5,2.5 7,0.8 7,0.8S5.5,2.5 5.5,3.5C5.5,4.33 6.17,5 7,5zM18.92,8.01C18.72,7.42 18.16,7 17.5,7h-11c-0.66,0 -1.21,0.42 -1.42,1.01L3,14v8c0,0.55 0.45,1 1,1h1c0.55,0 1,-0.45 1,-1v-1h12v1c0,0.55 0.45,1 1,1h1c0.55,0 1,-0.45 1,-1v-8l-2.08,-5.99zM6.5,18c-0.83,0 -1.5,-0.67 -1.5,-1.5S5.67,15 6.5,15s1.5,0.67 1.5,1.5S7.33,18 6.5,18zM17.5,18c-0.83,0 -1.5,-0.67 -1.5,-1.5s0.67,-1.5 1.5,-1.5 1.5,0.67 1.5,1.5 -0.67,1.5 -1.5,1.5zM5,13l1.5,-4.5h11L19,13L5,13z" fill="#000"/>
</g>
    <g transform="translate(50, 0) scale(0.5) "><path d="M21.41,11.58l-9,-9C12.05,2.22 11.55,2 11,2H4c-1.1,0 -2,0.9 -2,2v7c0,0.55 0.22,1.05 0.59,1.42l9,9c0.36,0.36 0.86,0.58 1.41,0.58 0.55,0 1.05,-0.22 1.41,-0.59l7,-7c0.37,-0.36 0.59,-0.86 0.59,-1.41 0,-0.55 -0.23,-1.06 -0.59,-1.42zM5.5,7C4.67,7 4,6.33 4,5.5S4.67,4 5.5,4 7,4.67 7,5.5 6.33,7 5.5,7z" fill="#000"/>
</g>
  </g>
</svg>
