<?xml version='1.0' encoding='ASCII' standalone='yes'?>
<svg xmlns="http://www.w3.org/2000/svg" xmlns:xlink="http://www.w3.org/1999/xlink" version="1.1" width="200" viewBox="0 0 200 200" height="200">
  <g>
    <g>
      <path d="M19.23 15.26l-2.54-.29a1.99 1.99 0 0 0-1.64.57l-1.84 1.84a15.045 15.045 0 0 1-6.59-6.59l1.85-1.85c.43-.43.64-1.03.57-1.64l-.29-2.52a2.001 2.001 0 0 0-1.99-1.77H5.03c-1.13 0-2.07.94-2 2.07c.53 8.54 7.36 15.36 15.89 15.89c1.13.07 2.07-.87 2.07-2v-1.73c.01-1.01-.75-1.86-1.76-1.98z"/>
    </g>
    <g transform="translate(50, 50) scale(0.5) "><path d="M3,2l2.01,18.23C5.13,21.23 5.97,22 7,22h10c1.03,0 1.87,-0.77 1.99,-1.77L21,2L3,2zM12,19c-1.66,0 -3,-1.34 -3,-3 0,-2 3,-5.4 3,-5.4s3,3.4 3,5.4c0,1.66 -1.34,3 -3,3zM18.33,8L5.67,8l-0.44,-4h13.53l-0.43,4z" fill="#000"/>
</g>
  </g>
</svg>
